<?xml version="1.0" encoding="UTF-8"?><svg id="a" xmlns="http://www.w3.org/2000/svg" width="100" height="100" viewBox="0 0 863.96 772.12" fill="whitesmoke"><path d="m543.3,585.65c-64.85,0-129.7.33-194.55-.13-38.3-.27-67.1-17.87-84.51-52.04-28.61-56.18,7.37-125.01,69.55-134.11,6.74-.99,13.54-1.68,20.33-.32,2.26.45,3.04-.21,3.24-2.63,3.73-45.53,34.52-79.85,79.36-88.46,7.58-1.46,15.27-2.08,22.95-.76,2.19.38,3.08-.39,4.01-2.24,23.41-46.54,60.6-75.67,111.64-85.56,80.32-15.57,157.36,31.37,180.98,108.71,1.06,3.47,2.5,4.96,6.12,5.73,55.18,11.68,95.25,56.65,100.92,112.98,6.53,64.79-39.31,125.18-103.71,136.7-8.22,1.47-16.49,2.14-24.83,2.14-63.81-.02-127.66-.01-191.5-.01Z"/><path d="m306.78,143.47c67.49,3.63,117.14,34.69,147.06,96.16,1.06,2.17,1.17,3.67-.61,5.64-5,5.52-9.41,11.54-13.51,17.76-1.21,1.83-2.61,2.59-4.83,2.97-53.48,9.02-90.7,38.41-110.76,89.05-1.22,3.07-2.69,4.33-5.94,5.09-44.98,10.59-76.49,37.41-94.81,79.75-1.49,3.44-2.5,3.54-5.34,1.58-41.17-28.41-66.02-67.06-72.41-116.87-10.41-81.17,44.65-158.86,124.94-176.9,11.86-2.66,23.85-4.06,36.21-4.23Z"/><path d="m317.31,750.76c-.04-2.7.6-5.27,1.6-7.74,14.84-36.69,29.65-73.39,44.59-110.04,3.73-9.16,11.73-13.99,21.18-13.33,8.85.62,16.11,6.42,18.57,14.88,1.5,5.17,1.09,10.23-.91,15.19-14.88,36.81-29.74,73.63-44.67,110.41-3.38,8.33-12.96,13.38-21.59,11.65-11.25-2.24-18.82-10.72-18.77-21.02Z"/><path d="m514.94,640.99c.2,3.65-1.13,7.32-2.61,10.96-14.43,35.63-28.86,71.26-43.28,106.89-4.6,11.38-15.63,16.02-27.31,11.45-10.93-4.27-16.34-16.11-12.04-27.02,6.05-15.36,12.36-30.62,18.55-45.93,8.6-21.26,17.16-42.54,25.82-63.79,3.76-9.24,11.26-14.25,20.44-13.96,11.71.39,20.37,9.31,20.43,21.4Z"/><path d="m625.45,641.11c.04,3.72-.81,7.22-2.21,10.66-14.48,35.75-28.93,71.52-43.39,107.28-4.49,11.1-15.54,15.72-27.11,11.32-10.96-4.17-16.51-16.03-12.21-26.92,7.45-18.88,15.16-37.65,22.77-56.47,7.23-17.88,14.39-35.79,21.73-53.62,4.93-11.96,16.53-16.76,28.24-11.94,7.58,3.11,12.15,10.5,12.18,19.69Z"/><path d="m736.22,642.66c.01,2.68-.88,6.04-2.22,9.36-14.46,35.62-28.88,71.26-43.3,106.9-4.58,11.32-15.71,15.95-27.35,11.34-10.9-4.32-16.26-16.18-11.92-27.08,7.78-19.56,15.77-39.04,23.67-58.55,6.91-17.06,13.75-34.14,20.74-51.17,4.92-11.99,16.45-16.85,28.18-12.09,7.85,3.19,12.42,10.8,12.2,21.29Z"/><path d="m458.72,173.65c-9.14-.32-16.04-4.37-19.62-12.9-3.54-8.43-2.32-16.55,4.14-23.14,16-16.31,32.17-32.46,48.43-48.51,8.43-8.32,21.87-8.08,29.98.17,8.17,8.31,8.2,21.41-.28,30.01-15.87,16.09-31.98,31.94-47.83,48.04-4.17,4.25-8.92,6.4-14.82,6.33Z"/><path d="m103.71,83.09c6.22-.06,11.25,2.01,15.37,6.11,16.09,16.03,32.18,32.06,48.15,48.21,7.16,7.24,8.12,18.04,2.74,26.47-5.43,8.49-14.58,11.85-23.96,8.8-2.44-.79-4.62-2-6.45-3.81-16.72-16.47-33.5-32.88-50.12-49.44-9.32-9.29-8.45-24.27,1.63-32.01,3.81-2.95,8.16-4.44,12.64-4.33Z"/><path d="m54.76,326.48c-11.47,0-22.94.11-34.41-.04-10.73-.14-19.27-8.19-20.25-18.74-1-10.78,5.59-20.08,16.02-22.5,1.34-.31,2.74-.46,4.12-.46,23.19-.03,46.39-.1,69.58.02,10.16.06,18.42,7.47,19.9,17.34,1.55,10.3-4,19.83-13.51,23.15-2.52.88-5.11,1.25-7.79,1.24-11.23-.03-22.44,0-33.66,0Z"/><path d="m83.91,506.57c.05-5.55,1.95-10.4,5.86-14.33,16.2-16.28,32.37-32.58,48.71-48.71,7.73-7.63,19.39-7.83,27.47-.88,8.3,7.14,9.85,19.49,3.49,28.4-1.09,1.53-2.42,2.91-3.75,4.25-15.84,15.92-31.7,31.82-47.55,47.72-5.22,5.23-14.05,6.86-21.1,3.91-8.06-3.37-13.24-11.41-13.13-20.36Z"/><path d="m284.5,54.75c0-11.61-.17-23.23.06-34.84.17-8.85,5.48-15.8,13.56-18.65,8.24-2.9,17.15-.71,22.83,5.64,3.62,4.04,5.28,8.87,5.29,14.22.05,22.6.1,45.2-.02,67.8-.07,12.31-9.07,21.15-21.04,21.06-11.55-.09-20.56-9.17-20.69-21.14-.13-11.36-.03-22.72-.03-34.09.02,0,.03,0,.04,0Z"/></svg>