<?xml version="1.0" encoding="UTF-8"?><svg id="a" xmlns="http://www.w3.org/2000/svg" width="864" height="736.63" viewBox="0 0 864 736.63"><path d="m512.1,449.13c-16.46-5.09-33.21-9.36-48.73-17.14-4.34-2.18-8.2-.32-11.98,1.44-26.68,12.43-54.98,19.1-84.14,20.1-34.84,1.19-68.7-5.06-100.71-19.56-25.25-11.44-48.01-26.57-67.6-46.22-4.17-4.18-8.15-3.3-12.87-2.25-46.66,10.37-89.65,1.83-127.42-27.46C23.26,330.6,2.85,294.24.31,248.95c-3.53-62.92,23.01-110.31,76.48-142.28,29.11-17.41,61.4-23.07,95.18-18.07,4.48.66,7.39-.36,10.17-3.77,18.51-22.76,40.5-41.43,66.2-55.64,27.08-14.97,55.89-24.15,86.78-27.59,34.25-3.81,67.21,1.03,99.54,11.94,5.19,1.75,10.51,3.53,15.19,6.28,6.73,3.95,12.61,2.42,19.23-.27,85.67-34.9,164.74-22.89,236.84,34.51,18.25,14.53,33.44,32.25,45.45,52.41,3.56,5.97,8.03,9.37,15.11,10.98,61.25,13.93,101.16,67.56,97.25,130.06-3.8,60.66-54.14,110.71-114.74,113.9-4.86.26-8.36,2.01-11.36,5.75-19.36,24.15-42.47,44-69.73,58.68-27.2,14.65-56.21,23.35-87.09,26.87-23.26,2.65-45.83-1.07-68.63-3.51l-.08-.07Z"/><path d="m375.1,505.38c1.25,5.64-1.06,9.76-2.72,14-14.99,38.27-22.35,78.22-26.48,118.91-.71,7.01-1.52,14.02-2.77,20.95-4.12,22.82-25.2,37.76-50.99,36.36-21.2-1.15-38.91-19.49-40.65-41.8-1.36-17.45,4.33-31.22,18.3-42.51,21.3-17.21,42.7-34.36,61.71-54.29,13-13.63,25.72-27.41,36.72-42.72,2.19-3.04,4.58-5.93,6.88-8.9Z"/><path d="m571.86,541.14c-6.25,17.7-12.45,33.47-17.02,49.8-8.5,30.3-12.47,61.35-15.85,92.52-.53,4.93-1.11,9.87-2.07,14.73-3.72,18.73-21.01,32.42-42.14,33.55-23.49,1.26-38.05-8-46.21-29.39-7.82-20.49-2.12-40.54,15.32-54.71,20.67-16.79,41.59-33.26,60.17-52.5,13.99-14.49,27.62-29.21,39.44-45.56,1.9-2.66,3.31-5.92,8.36-8.44Z"/><path d="m231.64,421.86c-5.68,16.68-11.41,31.21-15.83,46.21-9.72,33.01-14.1,66.88-17.48,100.94-3.36,33.85-36.64,54.08-67.15,40.7-26.98-11.83-34.98-52.81-14.49-73.8,14.46-14.81,31.55-26.54,47.01-40.19,22.24-19.65,41.93-41.46,59.51-65.27,1.97-2.64,3.5-5.76,8.43-8.59Z"/><path d="m512.18,449.2c-4.07,12.64-8.26,25.24-12.17,37.92-8.2,26.58-10.52,54.19-14.16,81.58-2.4,18.03-14.11,28.11-34.13,30.79-13.15,1.76-27.76-6.18-33.69-18.32-8.28-16.94-6.08-33.69,6.67-45.25,8.88-8.05,18.47-15.31,27.63-23.05,20.02-16.89,38.06-35.66,53.48-56.88,1.83-2.52,3.44-5.27,6.29-6.87,0,.01.08.08.08.08Z"/><path d="m210.99,633.31c-5.72,17.39-10.79,34.61-13.38,52.45-1.5,10.31-2.39,20.72-4.08,31-1.74,10.58-9.71,17.72-20.72,19.46-11.75,1.86-22.04-2.68-26.76-11.8-5.06-9.77-3.89-23.8,3.02-30.77,11.58-11.67,25.74-20.42,37.06-32.43,8.53-9.04,16.36-18.67,24.86-27.91Z"/></svg>