<?xml version="1.0" encoding="UTF-8"?><svg id="a" xmlns="http://www.w3.org/2000/svg" width="75" height="75" viewBox="0 0 842.98 864" fill="whitesmoke"><path d="m747.46,571.07c28.2,24.61,68.6,39.52,45.52,79.04-23.19,39.72-53.91,3.79-82.49-.29-9.43,23.96,7.09,44.42,7.07,66.53-.03,22.29-3.75,40.95-29.59,44.48-23.24,3.18-38.76-6.85-44.4-30.48-9.3-38.95-18.65-77.88-28.19-116.77-5.65-23.03-75.86-78.22-98.8-77.97-21.88.24-56.44,36.89-59.22,59.17-6.42,51.46,4.99,93.79,50.51,124.92,21.87,14.96,40.53,35.03,59.05,54.32,16.97,17.68,19.53,39.77,1.9,57.4-16.32,16.33-36.76,12.57-54.72-1.07-4.24-3.22-7.75-7.4-11.9-10.76-12.13-9.83-21.66-30.95-37.07-26.45-15.84,4.63-4.95,25.82-7.65,39.45-3.94,19.92-15.1,30.38-35.49,31.34-22.64,1.06-35.5-10.83-39.53-31.65-2.48-12.82-1.54-26.31-2.27-42.47-23.31,5.51-34.23,23.24-48.39,35.89-19.41,17.34-41.04,24.21-60.51,4.97-21.99-21.72-11.98-43.72,8.13-62.37,18.67-17.31,35.67-36.88,56.16-51.66,38.79-27.99,50.18-63.98,47.02-110.65-3.86-57.1-41.57-79.41-92.3-55.11-45.32,21.71-71.03,52.03-75.3,102.8-2.21,26.3-11.05,52.15-17.92,77.92-6.14,23.03-22.25,32.76-45.61,28.87-23.2-3.87-28.9-20.03-28.56-41.28.36-22.63,13.51-43.46,9.13-69.22-29.54.74-63.66,43.3-86.66-3.01-19.16-38.57,20.34-51.43,43.58-72.53-18.12-16.18-39.98-17.29-59.02-23.99-24.98-8.79-34.55-25.72-27.77-49.69,7.2-25.42,26.45-31.28,50.76-23.82,25.58,7.84,52.53,12.58,76.6,23.63,43.29,19.87,79.95,14.28,119.36-12.39,50.73-34.32,51.45-76.83,1.27-110.19-38.97-25.91-75.49-34.57-119.3-14.19-24.01,11.17-50.59,17.56-76.6,23.48-21.42,4.88-44.67,6.25-52.23-22.13-7.11-26.69,4.77-43.83,30.79-51.83,18.82-5.78,39.01-8.3,57.16-22.36-23.22-21.46-66.11-34.8-43.01-74.76,21.88-37.84,54.11-7.61,81.94-.63,9.97-23.55-4.43-43.04-5.61-63.72-1.35-23.54,2.12-43.87,29.82-48.33,26.57-4.28,39.94,11.77,45.71,34.81,9.07,36.26,16.72,72.87,25.15,109.3,13.57,58.66,94.36,91.75,142.71,58.82,5.51-3.75,11.26-6.05,14.02-13.05,12.54-31.86-3.37-105.06-28.82-129.17-25.28-23.94-51.01-47.42-76.33-71.33-18-17-23.16-37.39-6.51-56.85,18.78-21.96,40.28-15.99,59.81,1.04,14.83,12.92,29.23,26.34,44.03,39.72,13.21-12.05,7.74-24.73,8.74-35.87C383.85,16.11,395.69-.71,421.47.02c23.33.66,35.14,15.84,36.36,39.67.57,11.14-6.09,27.23,7.08,32.12,12.6,4.69,19.51-11.14,28.52-18.44,23.27-18.85,47.64-51.75,77.24-16.69,27.63,32.73-4.33,55.22-26.5,76.23-12.64,11.98-24.07,26.29-38.8,34.81-54.65,31.63-50.66,82.98-47.18,133.95,1.81,26.52,51.56,51.17,76.64,40.08,49.95-22.1,89.38-50.88,91.88-113.07,1.05-26.11,11.62-51.91,18.47-77.7,5.76-21.66,21.16-30.43,42.57-27.42,23.06,3.25,30.15,19.55,29.68,40.6-.09,3.99-1.49,7.98-1.38,11.95.5,18.58-18.33,39.56-5.3,53.54,13.3,14.28,28.83-11.66,46.33-10.74,15.46.81,30.5,1.36,37.26,17.52,7.11,17,7.45,34.59-7.96,47.83-9.95,8.56-21.65,15.09-35.44,24.49,15.4,17.73,36.39,17.58,53.98,23.84,23.49,8.36,43.23,21.02,36.5,48.83-7.48,30.9-33.07,31.73-58.29,25.4-23.3-5.81-47.05-11.81-68.72-21.81-45.98-21.23-85.39-13.81-126.71,14.56-45.92,31.53-46.61,73.76-.92,105.2,40.85,28.12,79.73,37.89,126.35,15.35,23.75-11.49,50.88-15.97,76.43-23.77,25.28-7.71,43.86,2.65,51.23,25.56,7.87,24.48-6.19,40.48-29.94,48.13-18.95,6.11-37.79,12.52-63.39,21.03Zm-252.98-139.42c-.5-43.13-34.81-76.38-77.17-74.81-39.67,1.47-72.92,36.48-72.58,76.42.35,41.83,36.23,76.07,78.19,74.64,40.64-1.38,72.05-34.85,71.56-76.25Z"/></svg>