<?xml version="1.0" encoding="UTF-8"?><svg id="a" xmlns="http://www.w3.org/2000/svg" width="100" height="100" viewBox="0 0 863.98 863.78" fill="whitesmoke"><path d="m224.94,427.69c.4-117.45,91.64-207.46,209.76-206.93,114.14.51,206.64,93.18,207.14,207.53.51,116.19-95.55,210.59-212.99,209.29-113.89-1.26-204.3-94.32-203.91-209.89Z"/><path d="m81.86,457.55c-17.28.02-34.57.45-51.83-.1C13.18,456.92.07,449.68,0,431.17c-.06-16.21,11.47-26.14,26.59-26.6,37.93-1.16,75.97-1.21,113.88.3,15.4.62,25.36,11.95,24.65,28.14-.74,16.75-12.23,24.02-27.96,24.41-18.43.45-36.87.1-55.3.13Z"/><path d="m783.95,457.13c-19.5,0-39.05.87-58.48-.27-15.62-.92-25.9-10.21-25.98-26.51-.07-14.89,10.03-23.68,23.68-25.15,38.84-4.19,77.89-4.32,116.71.08,15.31,1.73,25.18,11.8,24.01,28.35-1.2,16.92-12.92,23.41-28.32,23.85-17.2.49-34.42.11-51.63.11,0-.16,0-.31,0-.46Z"/><path d="m406.36,778.8c0-18.36-.86-36.77.28-55.05.89-14.24,9.35-23.22,24.46-23.8,14.74-.56,25.64,7.08,27.47,20.91,5.3,39.89,4.92,80.13.16,120.05-1.61,13.48-11.58,23.01-26.21,22.87-16.57-.16-25.15-11.01-26.02-26.46-1.1-19.45-.26-39-.26-58.51.04,0,.08,0,.12,0Z"/><path d="m406.07,80.24c0-17.2-.61-34.42.18-51.58.71-15.2,7.8-26.87,24.28-28.49,16.82-1.65,26.67,9.09,28.41,23.88,4.57,38.76,4.51,77.82-.02,116.59-1.55,13.26-10.25,23.57-25.36,23.56-16.42-.02-25.86-9.95-26.87-25.54-1.26-19.4-.3-38.94-.3-58.42-.1,0-.21,0-.32,0Z"/><path d="m146.48,743.89c-11.99-1.48-20.14-5.22-24.81-14.21-5.47-10.53-3.28-21.06,4.29-28.82,27.29-27.97,54.84-55.73,83.38-82.4,10.41-9.72,23.79-8.19,34.48,1.67,9.67,8.92,12.14,21.24,4.05,31.17-26.15,32.12-55.8,61.02-87.5,87.69-4.02,3.4-10.55,3.79-13.89,4.9Z"/><path d="m143.02,118.1c18.58-1.12,110.11,90.72,108.25,108.61-2.09,20.09-27.7,30.62-45.5,15.25-28.58-24.67-55.56-51.64-80.29-80.17-15.28-17.64-3.56-42.42,17.54-43.69Z"/><path d="m639.2,612.2c2.25.38,5.03.06,6.66,1.28,37.56,28.36,71.2,60.8,98.38,99.26,5.3,7.5,1.08,18.02-6.89,24.57-10.04,8.25-22.23,9.64-32,2.37-33.2-24.7-62.82-53.75-87.1-87.03-12.42-16.99,1.66-40.16,20.95-40.45Z"/><path d="m745.5,143.58c.82,20.36-87.2,106.47-107.5,105.16-20.82-1.34-32.58-23.58-17.88-40.52,26.36-30.38,55.2-58.99,85.63-85.3,15.63-13.52,38.94.4,39.75,20.66Z"/></svg>