<?xml version="1.0" encoding="UTF-8"?><svg id="a" xmlns="http://www.w3.org/2000/svg" width="863.98" height="858.04" viewBox="0 0 863.98 858.04"><path d="m444.34,695.12c-13.18,0-26.38.16-39.57-.04-13.42-.2-16.81-6.57-9.97-18.62,19.95-35.16,40-70.26,59.95-105.42,1.61-2.84,4.18-5.38,3.76-10h-10.87c-108.42-.11-216.84.13-325.26-.46-57.52-.32-110.96-47.33-120.36-104.27-9.81-59.45,16.57-111.82,70.65-139.69,4.38-2.26,6.29-4.97,6.96-9.73,12.91-91.09,86.81-156.24,178.68-157.42,5.65-.07,8.59-1.73,11.42-6.76C312.76,66.31,377.34,18.74,463.71,3.96c143.9-24.63,279.18,68.25,310.77,209.23,6.81,30.39,8.05,61.09,4.11,91.94-.7,5.52,2.03,6.73,5.97,8.5,43.06,19.4,69.28,52.03,77.62,98.82,11.88,66.65-36.28,135.09-102.91,146.44-16,2.72-32.01,1.82-48.03,1.94-28.11.22-56.22.11-84.33.01-4.5-.02-8.23.51-11.42,4.39-22.17,26.95-44.54,53.74-66.82,80.6-.56.68-.8,1.62-2,4.16h35.29c3.4,0,6.8.02,10.19,0,4.49-.02,7.87,2.01,9.47,6.1,1.57,4.03.52,7.68-2.5,11.04-8.49,9.45-17.78,18.06-27.53,26.12-39.25,32.44-76.88,66.74-114.24,101.27-21.53,19.9-44.76,37.81-65.7,58.31-4.55,4.45-9.72,7.45-15.56,3.09-6-4.48-3.85-10.29-1.11-15.84,21.97-44.54,43.95-89.08,65.79-133.68,1.57-3.16,4.29-6.08,3.57-11.28Z"/></svg>