<?xml version="1.0" encoding="UTF-8"?>
<svg id="a" xmlns="http://www.w3.org/2000/svg" width="100" height="100" viewBox="0 0 864 760.9" fill="whitesmoke">

<path d="m515.67,473.03c2.64-3.1,4.69-5.42,6.64-7.82,22.46-27.53,33.3-59.19,30.09-94.46-4.96-54.61-33.19-94.01-84.07-114.31-48.93-19.53-95.05-11.06-135.97,22.31-17.75,14.47-30.31,33.07-38.18,54.58-6.8,18.58-4.61,36.5,5.4,53.52.63,1.07,2.21,2.18,1.57,3.3-.73,1.27-2.57.58-3.91.58-37.47.03-74.93-.08-112.4.06-28.25.11-52.64,19.36-59.37,46.57-2.87,11.6-2.53,23.13,1.47,34.43.96,2.71.31,3.58-2.31,4.58-24.64,9.37-38.96,26.95-41.69,53.43-.33,3.25-1.46,2.57-3.35,1.39-34.69-21.61-59.49-51.43-71.36-90.59-18.38-60.62-5.89-115.14,36.55-162.11,25.57-28.3,58.06-44.66,95.73-50.6,7.15-1.13,14.36-1.74,21.61-1.66,1.94.02,2.91-.45,2.83-2.76-1.34-37.69,6.22-73.55,24.07-106.76C222.53,54.36,274.08,14.89,343.99,3.41c80.26-13.18,148.28,11.91,202.03,73.48,19.28,22.09,32.44,47.77,40.89,75.83.86,2.85,1.79,3.35,4.67,2.44,76.05-23.92,144.76-10.27,204.71,42.21,36.18,31.67,57.87,72.35,65.08,119.95,9.1,60.03-5.45,114.26-43.6,161.63-26.53,32.94-60.45,55.3-100.98,67.6-2.41.73-3.6.29-5.03-1.74-26.44-37.66-62.18-61-107.5-69.44-9.25-1.72-18.61-2.38-28.03-2.34-18.57.07-37.14.02-55.71.02-1.27-.02-2.55-.02-4.85-.02Z"/>
<path d="m363.58,555.28c-72.02,0-144.03,0-216.05.01-3.03,0-6.06-.1-8.99-.89-9.58-2.58-16.21-12-15.15-21.45,1.18-10.56,9.29-18.34,19.72-18.88,1.29-.07,2.59-.04,3.89-.04,142.2,0,284.39-.04,426.59.03,36.11.02,67.17,12.56,92.11,38.94,20.4,21.57,31.55,47.34,33.46,77.06,3.9,60.7-37.77,112.56-94.93,126.72-44.16,10.94-82.69.02-114.95-32.05-12.65-12.57-21.62-27.7-27.68-44.47-4.02-11.12,1.31-22.75,12.06-26.81,10.47-3.95,22.17,1.33,26.42,12.34,4.4,11.4,10.03,22.02,18.55,30.87,15.04,15.63,33.53,23.02,55.16,22.91,36.72-.18,69.32-23.01,80.48-56.47,16.24-48.71-16.35-100.62-67.21-107.14-4.63-.59-9.26-.64-13.89-.64-69.87-.05-139.73-.04-209.59-.04Z"/>
<path d="m303.67,431.73c38.33,0,76.65.04,114.98-.02,25.87-.04,47.34-18.46,51.49-44.02,4.53-27.9-17.8-56.09-45.86-58.5-25.99-2.23-45.25,13.97-52.73,31.98-3.25,7.82-8.83,12.73-17.42,13.55-8.23.78-14.86-2.32-19.37-9.28-3.76-5.82-4.38-12.28-1.74-18.61,12.42-29.86,34.32-48.67,65.82-56.5,47.34-11.78,100.84,18.62,111.39,73.12,9.75,50.3-25.85,101.03-76.38,108.19-6.29.89-12.65,1.4-19.03,1.39-75.58-.01-151.15-.02-226.73.02-7.35,0-14.01-1.6-18.82-7.56-5.28-6.54-6.29-13.92-2.91-21.58,3.35-7.61,9.62-11.38,17.79-12.11,1.5-.13,3.02-.06,4.53-.06,38.34-.01,76.67-.01,114.99-.01Z"/>
<path d="m197.65,637.55c-30.77,0-61.54-.01-92.31.01-7.74.01-14.53-2.05-19.2-8.7-4.62-6.57-5.21-13.66-1.84-20.86,3.41-7.28,9.54-10.89,17.43-11.65.96-.09,1.94-.06,2.91-.06,60.78,0,121.57-.31,182.35.1,43.54.3,74.7,30.72,81.88,66.57,8.84,44.17-21.44,88.61-65.86,96.5-33.71,5.99-66.45-8.45-84.42-37.26-3.42-5.48-6.28-11.14-5.05-17.93,1.62-8.99,8.15-15.7,16.72-17.18,8.79-1.52,17.34,2.54,21.72,10.72,5.55,10.35,13.73,17.27,25.09,20.45,22.51,6.3,46.62-8.44,51.36-31.45,4.73-22.96-11.71-46.07-34.91-49-2.45-.31-4.96-.25-7.44-.26-29.48,0-58.95,0-88.43,0Z"/></svg>

